<?xml version="1.0" standalone="no"?>
<!DOCTYPE svg PUBLIC "-//W3C//DTD SVG 20010904//EN"
 "http://www.w3.org/TR/2001/REC-SVG-20010904/DTD/svg10.dtd">
<svg version="1.0" xmlns="http://www.w3.org/2000/svg"
 width="200.000000pt" height="190.000000pt" viewBox="0 0 200.000000 190.000000"
 preserveAspectRatio="xMidYMid meet">

<g transform="translate(0.000000,190.000000) scale(0.100000,-0.100000)"
fill="#000000" stroke="none">
<path d="M473 1764 c-8 -4 -3 -14 15 -29 l27 -24 -32 -1 c-49 0 -135 -36 -181
-75 -39 -34 -84 -111 -96 -166 l-6 -27 93 -4 c93 -4 169 -29 222 -72 20 -16
19 -17 -15 -46 -19 -17 -40 -29 -46 -28 -6 2 -34 31 -63 66 -28 34 -56 62 -62
62 -6 0 -36 -26 -68 -57 -88 -88 -141 -217 -141 -341 l0 -47 95 -48 c52 -26
95 -51 95 -55 0 -19 -14 -21 -32 -5 -21 19 -39 12 -97 -37 l-34 -29 12 -53
c24 -110 147 -327 221 -393 l23 -20 -12 23 c-8 15 15 1 61 -38 70 -59 211
-150 233 -150 5 0 -8 16 -30 35 l-40 34 77 -40 c206 -107 433 -110 635 -8 l78
39 -40 -36 -40 -36 65 32 c76 38 145 86 214 150 38 35 46 39 37 20 -23 -47 83
77 125 147 46 78 99 201 109 254 7 35 5 38 -46 77 -48 36 -55 39 -70 26 -20
-18 -39 -18 -39 0 0 7 43 34 95 59 l95 46 0 43 c0 71 -27 175 -62 240 -37 70
-120 158 -148 158 -11 0 -40 -27 -70 -65 -56 -71 -52 -70 -107 -21 -13 11 -23
23 -23 27 0 4 34 25 76 45 69 34 83 38 160 38 83 1 84 1 84 26 0 42 -44 123
-90 164 -49 44 -107 72 -170 82 l-43 7 28 22 28 23 -49 6 c-106 14 -219 -28
-306 -115 -56 -56 -57 -56 -75 -37 -34 38 -113 65 -113 38 0 -5 -7 -10 -15
-10 -8 0 -15 7 -15 15 0 8 -6 15 -12 15 -25 -1 -96 -38 -106 -56 -9 -17 -16
-13 -71 39 -80 77 -153 110 -251 114 -41 1 -80 0 -87 -3z m230 -113 l42 -19
-50 -1 c-27 -1 -45 -5 -39 -9 33 -21 111 -258 129 -389 4 -34 12 -53 20 -53
25 0 67 -44 63 -67 l-3 -22 -65 27 -65 28 -6 55 c-20 187 -131 295 -323 315
-37 4 -66 11 -66 16 0 21 62 66 104 77 68 17 134 12 121 -9 -7 -11 22 -40 39
-40 32 0 38 27 17 76 l-21 46 31 -6 c16 -3 49 -14 72 -25z m725 22 c-45 -87
-45 -116 -1 -111 21 2 29 9 31 27 4 22 6 23 77 19 64 -3 78 -7 112 -34 61 -50
56 -61 -29 -66 -96 -5 -184 -44 -239 -106 -43 -50 -79 -146 -79 -216 0 -40 -2
-42 -53 -63 -89 -38 -87 -38 -87 -10 0 17 11 32 38 50 37 24 40 29 52 104 19
123 93 336 123 354 5 4 -12 5 -39 2 -60 -7 -51 8 22 37 52 20 78 25 72 13z
m-363 -85 c17 -16 -25 -39 -60 -32 -44 9 -54 23 -30 40 20 15 71 11 90 -8z
m-82 -53 c27 -11 43 -12 62 -5 43 16 48 12 21 -21 -27 -31 -34 -86 -28 -205 1
-29 -3 -44 -13 -48 -21 -8 -47 22 -37 42 5 9 6 56 2 104 -5 71 -10 92 -28 111
-20 21 -28 37 -18 37 2 0 20 -7 39 -15z m-569 -364 l51 -54 -68 38 c-38 20
-72 33 -77 29 -4 -5 -15 -40 -23 -79 -19 -86 -13 -98 70 -148 67 -41 136 -69
210 -86 29 -7 54 -20 57 -28 4 -9 5 -17 4 -19 -17 -16 -390 154 -411 187 -6
10 7 50 49 143 l58 128 14 -29 c8 -15 37 -52 66 -82z m247 -62 l38 -41 -41 6
c-49 8 -128 49 -159 82 l-23 24 44 45 44 45 30 -60 c16 -33 46 -79 67 -101z
m888 61 c0 -3 -19 -20 -43 -37 -44 -34 -113 -63 -148 -63 -17 0 -14 6 17 43
20 23 48 68 63 99 l26 58 43 -48 c23 -26 42 -49 42 -52z m257 -145 c5 -21 -7
-29 -134 -93 -133 -66 -268 -119 -278 -109 -14 14 14 34 64 45 67 16 226 90
261 123 21 19 23 28 18 73 -3 28 -11 68 -17 89 l-11 38 -65 -35 c-77 -43 -86
-45 -45 -10 17 14 45 48 63 76 l33 50 53 -112 c28 -62 55 -122 58 -135z m-900
-4 l29 -34 -33 6 c-44 9 -80 34 -98 68 l-14 29 43 -18 c25 -9 57 -32 73 -51z
m324 46 c0 -26 -58 -68 -113 -81 l-29 -7 37 38 c48 50 105 77 105 50z m-536
-169 c-3 -12 0 -18 10 -18 9 0 16 -3 17 -7 2 -20 8 -51 14 -79 4 -20 3 -34 -4
-38 -6 -4 -11 0 -11 8 0 9 -9 25 -21 37 -12 12 -31 58 -44 107 l-24 87 35 -39
c23 -26 32 -46 28 -58z m679 2 c-14 -47 -34 -94 -44 -106 -10 -11 -19 -29 -19
-39 0 -14 -3 -16 -11 -8 -8 8 -9 25 -4 50 5 21 7 43 6 50 -1 7 7 18 18 24 10
7 17 18 14 26 -5 12 55 98 63 91 2 -2 -9 -42 -23 -88z m-793 -107 c0 -11 -51
-176 -53 -172 -1 2 -13 17 -27 32 -16 19 -19 26 -8 22 12 -5 21 6 37 50 12 31
21 60 21 65 0 6 7 10 15 10 8 0 15 -3 15 -7z m918 -66 c24 -67 25 -68 45 -50
14 12 11 5 -8 -20 -15 -21 -31 -34 -35 -30 -8 9 -50 145 -50 163 0 31 25 -3
48 -63z m-838 53 c0 -5 -7 -10 -15 -10 -8 0 -15 5 -15 10 0 6 7 10 15 10 8 0
15 -4 15 -10z m733 -7 c-7 -2 -19 -2 -25 0 -7 3 -2 5 12 5 14 0 19 -2 13 -5z
m-709 -39 c4 -11 0 -15 -16 -12 -12 2 -23 9 -26 16 -6 18 35 15 42 -4z m706 7
c0 -5 -6 -13 -13 -19 -15 -13 -42 1 -33 17 8 13 46 15 46 2z m-562 -38 c6 -41
-150 -130 -211 -121 -16 2 -9 10 32 36 29 18 57 30 62 27 5 -4 28 14 51 39 46
48 61 52 66 19z m438 -20 c35 -36 39 -38 15 -10 -43 52 -39 59 9 12 21 -21 36
-43 33 -48 -3 -6 -2 -7 3 -4 6 3 32 -7 59 -23 48 -29 49 -30 20 -30 -49 0
-125 32 -171 73 -37 33 -42 42 -34 58 6 10 13 19 15 19 2 0 25 -21 51 -47z
m-496 24 c0 -2 -15 -16 -32 -33 l-33 -29 29 33 c28 30 36 37 36 29z m-62 -19
c-3 -7 -11 -13 -18 -13 -7 0 -15 6 -17 13 -3 7 4 12 17 12 13 0 20 -5 18 -12z
m313 -58 c15 0 57 15 93 34 55 29 66 32 66 18 0 -24 -72 -54 -142 -60 -57 -4
-158 20 -158 39 0 5 -7 9 -15 9 -8 0 -15 7 -15 15 0 11 18 6 72 -20 40 -19 85
-35 99 -35z m337 58 c-7 -19 -38 -22 -38 -4 0 10 9 16 21 16 12 0 19 -5 17
-12z m-935 -165 c32 -40 63 -73 68 -73 5 0 9 21 9 48 0 47 10 75 26 72 4 -1
11 6 14 15 5 15 3 -143 -3 -200 -4 -43 -178 160 -207 241 l-10 29 22 -30 c13
-16 49 -62 81 -102z m1273 92 c-23 -54 -75 -124 -140 -190 l-61 -60 -6 115
c-3 63 -4 117 -2 119 1 2 3 -5 3 -17 0 -12 6 -22 14 -22 16 0 26 -30 26 -85
l1 -40 40 45 c22 25 61 73 86 108 26 34 48 62 50 62 2 0 -3 -16 -11 -35z
m-676 -17 c47 0 81 6 113 20 37 16 47 18 47 7 0 -43 -59 -59 -189 -53 -91 4
-141 23 -141 52 0 11 11 10 52 -6 31 -11 77 -19 118 -20z m-135 -177 c30 -23
30 -23 2 -6 -41 24 -44 12 -5 -18 44 -33 73 -41 99 -26 17 9 31 8 60 -1 30
-10 44 -10 67 -1 31 13 69 48 73 66 3 17 49 71 49 57 0 -25 -52 -115 -92 -158
-42 -46 -83 -58 -94 -29 -8 19 -35 19 -60 0 -10 -8 -25 -15 -31 -15 -24 0 -90
70 -122 129 -38 73 -40 95 -3 56 15 -17 41 -41 57 -54z m-225 -41 c47 -24 50
-24 50 -5 0 25 80 -25 141 -88 30 -31 50 -57 44 -57 -19 0 -117 36 -160 58
-65 33 -149 112 -120 112 3 0 23 -9 45 -20z m760 6 c0 -17 -111 -99 -161 -120
-19 -8 -58 -21 -88 -30 l-54 -16 54 58 c46 49 117 100 142 102 4 0 7 -7 7 -15
0 -12 9 -11 48 9 57 30 52 29 52 12z m-380 -167 c0 -5 -11 -9 -25 -9 -26 0
-34 15 -12 23 16 5 37 -3 37 -14z"/>
<path d="M406 1378 c14 -25 48 -58 58 -58 6 0 19 7 29 15 18 13 16 15 -22 34
-46 24 -76 28 -65 9z"/>
<path d="M1562 1370 c-44 -20 -47 -31 -11 -50 16 -9 24 -5 49 22 49 53 36 62
-38 28z"/>
</g>
</svg>
