<?xml version="1.0" standalone="no"?>
<!DOCTYPE svg PUBLIC "-//W3C//DTD SVG 20010904//EN"
 "http://www.w3.org/TR/2001/REC-SVG-20010904/DTD/svg10.dtd">
<svg version="1.0" xmlns="http://www.w3.org/2000/svg"
 width="500.000000pt" height="500.000000pt" viewBox="0 0 500.000000 500.000000"
 preserveAspectRatio="xMidYMid meet">

<g transform="translate(0.000000,500.000000) scale(0.100000,-0.100000)"
fill="#000000" stroke="none">
<path d="M3624 3135 c0 -137 2 -195 3 -128 2 67 2 179 0 250 -1 70 -3 16 -3
-122z"/>
<path d="M1220 3340 c0 -5 5 -10 10 -10 19 0 10 -31 -12 -40 l-23 -9 22 0 c31
-1 48 33 27 53 -18 19 -24 20 -24 6z"/>
<path d="M1343 3315 c0 -22 2 -30 4 -17 2 12 2 30 0 40 -3 9 -5 -1 -4 -23z"/>
<path d="M3770 3295 c0 -12 15 -15 75 -15 41 0 75 4 75 9 0 15 -18 23 -25 11
-8 -13 -92 -13 -100 0 -9 15 -25 12 -25 -5z"/>
<path d="M2791 3214 c0 -11 3 -14 6 -6 3 7 2 16 -1 19 -3 4 -6 -2 -5 -13z"/>
<path d="M3793 3183 c32 -2 81 -2 110 0 29 2 3 3 -58 3 -60 0 -84 -1 -52 -3z"/>
<path d="M1333 3169 c-6 -6 -28 -17 -49 -24 -23 -8 -31 -14 -19 -15 19 0 85
34 85 45 0 8 -5 6 -17 -6z"/>
<path d="M2792 3120 c0 -14 2 -19 5 -12 2 6 2 18 0 25 -3 6 -5 1 -5 -13z"/>
<path d="M3783 3133 c31 -2 83 -2 115 0 31 2 5 3 -58 3 -63 0 -89 -1 -57 -3z"/>
<path d="M1316 3051 c-3 -5 1 -14 9 -21 13 -10 15 -9 15 9 0 21 -14 28 -24 12z"/>
<path d="M3770 3026 c0 -23 13 -25 33 -4 16 17 16 18 -8 18 -15 0 -25 -6 -25
-14z"/>
<path d="M3885 3026 c20 -14 35 -12 35 5 0 5 -12 9 -27 9 -26 0 -26 -1 -8 -14z"/>
<path d="M1194 2949 c57 -81 89 -121 71 -89 -22 40 -106 160 -117 166 -7 4 14
-30 46 -77z"/>
<path d="M1225 3003 c18 -30 73 -98 58 -73 -16 29 -66 100 -70 100 -2 0 3 -12
12 -27z"/>
<path d="M1033 2925 c0 -27 2 -38 4 -22 2 15 2 37 0 50 -2 12 -4 0 -4 -28z"/>
<path d="M1840 2905 c13 -14 26 -25 28 -25 3 0 -5 11 -18 25 -13 14 -26 25
-28 25 -3 0 5 -11 18 -25z"/>
<path d="M1130 2852 c0 -39 2 -42 15 -28 14 14 14 18 1 43 l-15 28 -1 -43z"/>
<path d="M1904 2856 c11 -9 24 -16 30 -16 12 0 7 5 -24 19 -24 11 -24 11 -6
-3z"/>
<path d="M2250 2850 c-9 -6 -10 -10 -3 -10 6 0 15 5 18 10 8 12 4 12 -15 0z"/>
<path d="M1978 2823 c7 -3 16 -2 19 1 4 3 -2 6 -13 5 -11 0 -14 -3 -6 -6z"/>
<path d="M2188 2823 c7 -3 16 -2 19 1 4 3 -2 6 -13 5 -11 0 -14 -3 -6 -6z"/>
<path d="M3048 2823 c7 -3 16 -2 19 1 4 3 -2 6 -13 5 -11 0 -14 -3 -6 -6z"/>
<path d="M2023 2813 c9 -2 25 -2 35 0 9 3 1 5 -18 5 -19 0 -27 -2 -17 -5z"/>
<path d="M2108 2813 c12 -2 32 -2 45 0 12 2 2 4 -23 4 -25 0 -35 -2 -22 -4z"/>
<path d="M3118 2813 c12 -2 30 -2 40 0 9 3 -1 5 -23 4 -22 0 -30 -2 -17 -4z"/>
<path d="M3350 2080 c0 -317 1 -340 18 -339 10 0 12 3 5 6 -10 4 -13 79 -13
328 0 298 1 325 18 334 15 9 15 10 -5 11 l-23 0 0 -340z"/>
<path d="M3453 2413 c15 -2 39 -2 55 0 15 2 2 4 -28 4 -30 0 -43 -2 -27 -4z"/>
<path d="M1064 2275 c0 -77 2 -107 3 -67 2 40 2 103 0 140 -2 37 -3 4 -3 -73z"/>
<path d="M1818 2363 c6 -2 18 -2 25 0 6 3 1 5 -13 5 -14 0 -19 -2 -12 -5z"/>
<path d="M1918 2363 c6 -2 18 -2 25 0 6 3 1 5 -13 5 -14 0 -19 -2 -12 -5z"/>
<path d="M3493 2363 c15 -2 37 -2 50 0 12 2 0 4 -28 4 -27 0 -38 -2 -22 -4z"/>
<path d="M832 2278 l-2 -78 74 0 c71 0 74 1 69 21 -5 18 -7 19 -15 5 -11 -20
-90 -22 -106 -3 -6 7 -13 40 -15 72 -3 56 -3 55 -5 -17z"/>
<path d="M4052 2043 c-2 -283 -1 -303 16 -303 12 0 13 3 5 8 -10 6 -13 82 -16
302 l-2 295 -3 -302z"/>
<path d="M2793 2245 c0 -33 2 -45 4 -27 2 18 2 45 0 60 -2 15 -4 0 -4 -33z"/>
<path d="M2742 2260 c0 -19 2 -27 5 -17 2 9 2 25 0 35 -3 9 -5 1 -5 -18z"/>
<path d="M2890 2248 c0 -19 2 -20 10 -8 13 19 13 30 0 30 -5 0 -10 -10 -10
-22z"/>
<path d="M3508 2235 l-4 -35 61 2 c46 1 51 2 20 5 -55 6 -71 20 -49 44 16 18
16 19 -3 19 -16 0 -22 -8 -25 -35z"/>
<path d="M853 2103 c31 -2 83 -2 115 0 31 2 5 3 -58 3 -63 0 -89 -1 -57 -3z"/>
<path d="M3483 2103 c15 -2 39 -2 55 0 15 2 2 4 -28 4 -30 0 -43 -2 -27 -4z"/>
<path d="M848 2053 c34 -2 88 -2 120 0 31 2 3 3 -63 3 -66 0 -92 -1 -57 -3z"/>
<path d="M3488 2053 c18 -2 45 -2 60 0 15 2 0 4 -33 4 -33 0 -45 -2 -27 -4z"/>
<path d="M1064 1905 c0 -66 1 -92 3 -57 2 34 2 88 0 120 -2 31 -3 3 -3 -63z"/>
<path d="M832 1898 c1 -54 2 -57 5 -18 3 25 12 53 20 62 15 17 14 18 -5 18
-20 0 -22 -5 -20 -62z"/>
<path d="M951 1943 c7 -10 15 -20 16 -22 2 -2 3 5 3 17 0 14 -6 22 -16 22 -14
0 -15 -3 -3 -17z"/>
<path d="M3510 1925 l0 -35 73 1 72 2 -55 6 c-73 8 -87 17 -64 42 16 18 16 19
-4 19 -18 0 -22 -6 -22 -35z"/>
<path d="M4210 1908 c0 -12 7 -18 23 -17 15 0 17 2 7 6 -8 3 -18 11 -22 17 -5
7 -8 4 -8 -6z"/>
</g>
</svg>
